<svg width="20" height="20" viewBox="0 0 20 20" fill="none" xmlns="http://www.w3.org/2000/svg">
<path d="M10.517 17.3417C10.2337 17.4417 9.76699 17.4417 9.48366 17.3417C7.06699 16.5167 1.66699 13.075 1.66699 7.24166C1.66699 4.66666 3.74199 2.58333 6.30033 2.58333C7.81699 2.58333 9.15866 3.31666 10.0003 4.45C10.842 3.31666 12.192 2.58333 13.7003 2.58333C16.2587 2.58333 18.3337 4.66666 18.3337 7.24166C18.3337 13.075 12.9337 16.5167 10.517 17.3417Z" fill="#E74C3C"/>
<path d="M15.6351 7.7679C15.6101 8.11873 15.3184 8.3929 14.9767 8.40207C14.7934 8.38457 14.6184 8.30207 14.5017 8.1604C14.3851 8.01873 14.3276 7.83457 14.3434 7.64373V7.6179C14.3434 7.0354 13.9859 6.50957 13.4517 6.30957C13.1017 6.1854 12.9184 5.80207 13.0351 5.45207C13.1601 5.10207 13.5351 4.9179 13.8767 5.0354C14.9526 5.44373 15.6601 6.50123 15.6351 7.66873V7.7679Z" fill="white"/>
</svg>
