<svg width="20" height="21" viewBox="0 0 20 21" fill="none" xmlns="http://www.w3.org/2000/svg">
<path d="M11.4421 3.425L12.9087 6.35833C13.1087 6.76667 13.6421 7.15833 14.0921 7.23333L16.7504 7.675C18.4504 7.95833 18.8504 9.19167 17.6254 10.4083L15.5587 12.475C15.2087 12.825 15.0171 13.5 15.1254 13.9833L15.7171 16.5417C16.1837 18.5667 15.1087 19.35 13.3171 18.2917L10.8254 16.8167C10.3754 16.55 9.63375 16.55 9.17541 16.8167L6.68375 18.2917C4.90041 19.35 3.81708 18.5583 4.28375 16.5417L4.87541 13.9833C4.98375 13.5 4.79208 12.825 4.44208 12.475L2.37541 10.4083C1.15875 9.19167 1.55041 7.95833 3.25041 7.675L5.90875 7.23333C6.35041 7.15833 6.88375 6.76667 7.08375 6.35833L8.55041 3.425C9.35041 1.83333 10.6504 1.83333 11.4421 3.425Z" fill="#FFD33C"/>
</svg>
